<mxfile host="app.diagrams.net" modified="2023-11-03T03:00:40.106Z" agent="Mozilla/5.0 (Windows NT 10.0; Win64; x64) AppleWebKit/537.36 (KHTML, like Gecko) Chrome/118.0.0.0 Safari/537.36" etag="wNCiz_9pm17GFIQU-_Wk" version="22.0.8" type="device">
  <diagram name="Page-1" id="0D_XUECcbP_-Xq-RHdxq">
    <mxGraphModel dx="3774" dy="1152" grid="1" gridSize="10" guides="1" tooltips="1" connect="1" arrows="1" fold="1" page="1" pageScale="1" pageWidth="850" pageHeight="1100" math="0" shadow="0">
      <root>
        <mxCell id="0" />
        <mxCell id="1" parent="0" />
        <mxCell id="nEkNQTo_gxOI6gmib4o7-44" value="" style="strokeWidth=1;shadow=0;dashed=0;align=center;html=1;shape=mxgraph.mockup.containers.browserWindow;rSize=0;strokeColor=#666666;strokeColor2=#008cff;strokeColor3=#c4c4c4;mainText=,;recursiveResize=0;" parent="1" vertex="1">
          <mxGeometry width="850" height="760" as="geometry" />
        </mxCell>
        <mxCell id="nEkNQTo_gxOI6gmib4o7-45" value="&lt;strong style=&quot;color: rgb(0, 0, 0); font-family: Montserrat, Helvetica, sans-serif; font-size: 16px;&quot;&gt;Home&lt;/strong&gt;&amp;nbsp;" style="strokeWidth=1;shadow=0;dashed=0;align=center;html=1;shape=mxgraph.mockup.containers.anchor;fontSize=17;fontColor=#666666;align=left;whiteSpace=wrap;" parent="nEkNQTo_gxOI6gmib4o7-44" vertex="1">
          <mxGeometry x="60" y="12" width="110" height="26" as="geometry" />
        </mxCell>
        <mxCell id="nEkNQTo_gxOI6gmib4o7-46" value="https://magnacomerce.gov" style="strokeWidth=1;shadow=0;dashed=0;align=center;html=1;shape=mxgraph.mockup.containers.anchor;rSize=0;fontSize=17;fontColor=#666666;align=left;" parent="nEkNQTo_gxOI6gmib4o7-44" vertex="1">
          <mxGeometry x="130" y="60" width="250" height="26" as="geometry" />
        </mxCell>
        <mxCell id="yR7rktbDXTXgNNXBTuQe-1" value="Hero Image" style="rounded=0;whiteSpace=wrap;html=1;" parent="nEkNQTo_gxOI6gmib4o7-44" vertex="1">
          <mxGeometry x="45" y="170" width="740" height="220" as="geometry" />
        </mxCell>
        <mxCell id="yR7rktbDXTXgNNXBTuQe-14" value="Navigation" style="rounded=0;whiteSpace=wrap;html=1;" parent="nEkNQTo_gxOI6gmib4o7-44" vertex="1">
          <mxGeometry x="80" y="130" width="670" height="60" as="geometry" />
        </mxCell>
        <mxCell id="R5dkrLSoF7o3c6FtXyGB-1" value="up coming events" style="rounded=0;whiteSpace=wrap;html=1;" vertex="1" parent="nEkNQTo_gxOI6gmib4o7-44">
          <mxGeometry x="80" y="490" width="225" height="100" as="geometry" />
        </mxCell>
        <mxCell id="R5dkrLSoF7o3c6FtXyGB-2" value="what&#39;s new" style="rounded=0;whiteSpace=wrap;html=1;" vertex="1" parent="nEkNQTo_gxOI6gmib4o7-44">
          <mxGeometry x="525" y="490" width="225" height="100" as="geometry" />
        </mxCell>
        <mxCell id="R5dkrLSoF7o3c6FtXyGB-11" value="Weather info" style="rounded=0;whiteSpace=wrap;html=1;" vertex="1" parent="nEkNQTo_gxOI6gmib4o7-44">
          <mxGeometry x="210" y="630" width="410" height="90" as="geometry" />
        </mxCell>
        <mxCell id="R5dkrLSoF7o3c6FtXyGB-22" value="Text block" style="rounded=0;whiteSpace=wrap;html=1;" vertex="1" parent="nEkNQTo_gxOI6gmib4o7-44">
          <mxGeometry x="170" y="410" width="490" height="60" as="geometry" />
        </mxCell>
        <mxCell id="yR7rktbDXTXgNNXBTuQe-2" value="" style="strokeWidth=1;shadow=0;dashed=0;align=center;html=1;shape=mxgraph.mockup.containers.browserWindow;rSize=0;strokeColor=#666666;strokeColor2=#008cff;strokeColor3=#c4c4c4;mainText=,;recursiveResize=0;" parent="1" vertex="1">
          <mxGeometry x="970" y="770" width="850" height="690" as="geometry" />
        </mxCell>
        <mxCell id="yR7rktbDXTXgNNXBTuQe-3" value="&lt;font face=&quot;Montserrat, Helvetica, sans-serif&quot; color=&quot;#000000&quot;&gt;&lt;span style=&quot;font-size: 16px;&quot;&gt;&lt;b&gt;Discovery&lt;/b&gt;&lt;/span&gt;&lt;/font&gt;" style="strokeWidth=1;shadow=0;dashed=0;align=center;html=1;shape=mxgraph.mockup.containers.anchor;fontSize=17;fontColor=#666666;align=left;whiteSpace=wrap;" parent="yR7rktbDXTXgNNXBTuQe-2" vertex="1">
          <mxGeometry x="60" y="12" width="110" height="26" as="geometry" />
        </mxCell>
        <mxCell id="yR7rktbDXTXgNNXBTuQe-4" value="https://magnacomerce.gov" style="strokeWidth=1;shadow=0;dashed=0;align=center;html=1;shape=mxgraph.mockup.containers.anchor;rSize=0;fontSize=17;fontColor=#666666;align=left;" parent="yR7rktbDXTXgNNXBTuQe-2" vertex="1">
          <mxGeometry x="130" y="60" width="250" height="26" as="geometry" />
        </mxCell>
        <mxCell id="yR7rktbDXTXgNNXBTuQe-5" value="" style="rounded=0;whiteSpace=wrap;html=1;" parent="yR7rktbDXTXgNNXBTuQe-2" vertex="1">
          <mxGeometry x="50" y="140" width="80" height="70" as="geometry" />
        </mxCell>
        <mxCell id="yR7rktbDXTXgNNXBTuQe-6" value="" style="strokeWidth=1;shadow=0;dashed=0;align=center;html=1;shape=mxgraph.mockup.containers.browserWindow;rSize=0;strokeColor=#666666;strokeColor2=#008cff;strokeColor3=#c4c4c4;mainText=,;recursiveResize=0;" parent="1" vertex="1">
          <mxGeometry x="-60" y="780" width="850" height="900" as="geometry" />
        </mxCell>
        <mxCell id="yR7rktbDXTXgNNXBTuQe-7" value="&lt;font face=&quot;Montserrat, Helvetica, sans-serif&quot; color=&quot;#000000&quot;&gt;&lt;span style=&quot;font-size: 16px;&quot;&gt;&lt;b&gt;Directory&lt;/b&gt;&lt;/span&gt;&lt;/font&gt;" style="strokeWidth=1;shadow=0;dashed=0;align=center;html=1;shape=mxgraph.mockup.containers.anchor;fontSize=17;fontColor=#666666;align=left;whiteSpace=wrap;" parent="yR7rktbDXTXgNNXBTuQe-6" vertex="1">
          <mxGeometry x="60" y="12" width="110" height="26" as="geometry" />
        </mxCell>
        <mxCell id="yR7rktbDXTXgNNXBTuQe-8" value="https://magnacomerce.gov" style="strokeWidth=1;shadow=0;dashed=0;align=center;html=1;shape=mxgraph.mockup.containers.anchor;rSize=0;fontSize=17;fontColor=#666666;align=left;" parent="yR7rktbDXTXgNNXBTuQe-6" vertex="1">
          <mxGeometry x="130" y="60" width="250" height="26" as="geometry" />
        </mxCell>
        <mxCell id="R5dkrLSoF7o3c6FtXyGB-3" value="Hero Image" style="rounded=0;whiteSpace=wrap;html=1;" vertex="1" parent="yR7rktbDXTXgNNXBTuQe-6">
          <mxGeometry x="50" y="180" width="740" height="270" as="geometry" />
        </mxCell>
        <mxCell id="R5dkrLSoF7o3c6FtXyGB-4" value="Navigation" style="rounded=0;whiteSpace=wrap;html=1;" vertex="1" parent="yR7rktbDXTXgNNXBTuQe-6">
          <mxGeometry x="85" y="140" width="670" height="60" as="geometry" />
        </mxCell>
        <mxCell id="R5dkrLSoF7o3c6FtXyGB-8" value="Join us to make a difference today!" style="rounded=0;whiteSpace=wrap;html=1;" vertex="1" parent="yR7rktbDXTXgNNXBTuQe-6">
          <mxGeometry x="297.5" y="550" width="245" height="120" as="geometry" />
        </mxCell>
        <mxCell id="R5dkrLSoF7o3c6FtXyGB-10" value="Weather info" style="rounded=0;whiteSpace=wrap;html=1;" vertex="1" parent="yR7rktbDXTXgNNXBTuQe-6">
          <mxGeometry x="215" y="760" width="410" height="90" as="geometry" />
        </mxCell>
        <mxCell id="R5dkrLSoF7o3c6FtXyGB-13" value="Text block" style="rounded=0;whiteSpace=wrap;html=1;" vertex="1" parent="yR7rktbDXTXgNNXBTuQe-6">
          <mxGeometry x="175" y="470" width="490" height="60" as="geometry" />
        </mxCell>
        <mxCell id="yR7rktbDXTXgNNXBTuQe-10" value="" style="strokeWidth=1;shadow=0;dashed=0;align=center;html=1;shape=mxgraph.mockup.containers.browserWindow;rSize=0;strokeColor=#666666;strokeColor2=#008cff;strokeColor3=#c4c4c4;mainText=,;recursiveResize=0;" parent="1" vertex="1">
          <mxGeometry x="-1120" y="790" width="850" height="890" as="geometry" />
        </mxCell>
        <mxCell id="yR7rktbDXTXgNNXBTuQe-11" value="&lt;font face=&quot;Montserrat, Helvetica, sans-serif&quot; color=&quot;#000000&quot;&gt;&lt;span style=&quot;font-size: 16px;&quot;&gt;&lt;b&gt;Join&lt;/b&gt;&lt;/span&gt;&lt;/font&gt;" style="strokeWidth=1;shadow=0;dashed=0;align=center;html=1;shape=mxgraph.mockup.containers.anchor;fontSize=17;fontColor=#666666;align=left;whiteSpace=wrap;" parent="yR7rktbDXTXgNNXBTuQe-10" vertex="1">
          <mxGeometry x="60" y="12" width="110" height="26" as="geometry" />
        </mxCell>
        <mxCell id="yR7rktbDXTXgNNXBTuQe-12" value="https://magnacomerce.gov" style="strokeWidth=1;shadow=0;dashed=0;align=center;html=1;shape=mxgraph.mockup.containers.anchor;rSize=0;fontSize=17;fontColor=#666666;align=left;" parent="yR7rktbDXTXgNNXBTuQe-10" vertex="1">
          <mxGeometry x="130" y="60" width="250" height="26" as="geometry" />
        </mxCell>
        <mxCell id="R5dkrLSoF7o3c6FtXyGB-5" value="Hero Image" style="rounded=0;whiteSpace=wrap;html=1;" vertex="1" parent="yR7rktbDXTXgNNXBTuQe-10">
          <mxGeometry x="30" y="170" width="740" height="270" as="geometry" />
        </mxCell>
        <mxCell id="R5dkrLSoF7o3c6FtXyGB-6" value="Navigation" style="rounded=0;whiteSpace=wrap;html=1;" vertex="1" parent="yR7rktbDXTXgNNXBTuQe-10">
          <mxGeometry x="65" y="130" width="670" height="60" as="geometry" />
        </mxCell>
        <mxCell id="R5dkrLSoF7o3c6FtXyGB-7" value="Join us to make a difference today!" style="rounded=0;whiteSpace=wrap;html=1;" vertex="1" parent="yR7rktbDXTXgNNXBTuQe-10">
          <mxGeometry x="290" y="590" width="220" height="100" as="geometry" />
        </mxCell>
        <mxCell id="R5dkrLSoF7o3c6FtXyGB-9" value="Weather info" style="rounded=0;whiteSpace=wrap;html=1;" vertex="1" parent="yR7rktbDXTXgNNXBTuQe-10">
          <mxGeometry x="195" y="760" width="410" height="90" as="geometry" />
        </mxCell>
        <mxCell id="R5dkrLSoF7o3c6FtXyGB-12" value="Text block" style="rounded=0;whiteSpace=wrap;html=1;" vertex="1" parent="yR7rktbDXTXgNNXBTuQe-10">
          <mxGeometry x="155" y="480" width="490" height="60" as="geometry" />
        </mxCell>
        <mxCell id="R5dkrLSoF7o3c6FtXyGB-14" value="" style="strokeWidth=1;shadow=0;dashed=0;align=center;html=1;shape=mxgraph.mockup.containers.browserWindow;rSize=0;strokeColor=#666666;strokeColor2=#008cff;strokeColor3=#c4c4c4;mainText=,;recursiveResize=0;" vertex="1" parent="1">
          <mxGeometry x="-50" y="790" width="850" height="900" as="geometry" />
        </mxCell>
        <mxCell id="R5dkrLSoF7o3c6FtXyGB-15" value="&lt;font face=&quot;Montserrat, Helvetica, sans-serif&quot; color=&quot;#000000&quot;&gt;&lt;span style=&quot;font-size: 16px;&quot;&gt;&lt;b&gt;Directory&lt;/b&gt;&lt;/span&gt;&lt;/font&gt;" style="strokeWidth=1;shadow=0;dashed=0;align=center;html=1;shape=mxgraph.mockup.containers.anchor;fontSize=17;fontColor=#666666;align=left;whiteSpace=wrap;" vertex="1" parent="R5dkrLSoF7o3c6FtXyGB-14">
          <mxGeometry x="60" y="12" width="110" height="26" as="geometry" />
        </mxCell>
        <mxCell id="R5dkrLSoF7o3c6FtXyGB-16" value="https://magnacomerce.gov" style="strokeWidth=1;shadow=0;dashed=0;align=center;html=1;shape=mxgraph.mockup.containers.anchor;rSize=0;fontSize=17;fontColor=#666666;align=left;" vertex="1" parent="R5dkrLSoF7o3c6FtXyGB-14">
          <mxGeometry x="130" y="60" width="250" height="26" as="geometry" />
        </mxCell>
        <mxCell id="R5dkrLSoF7o3c6FtXyGB-17" value="Hero Image" style="rounded=0;whiteSpace=wrap;html=1;" vertex="1" parent="R5dkrLSoF7o3c6FtXyGB-14">
          <mxGeometry x="50" y="180" width="740" height="270" as="geometry" />
        </mxCell>
        <mxCell id="R5dkrLSoF7o3c6FtXyGB-18" value="Navigation" style="rounded=0;whiteSpace=wrap;html=1;" vertex="1" parent="R5dkrLSoF7o3c6FtXyGB-14">
          <mxGeometry x="85" y="140" width="670" height="60" as="geometry" />
        </mxCell>
        <mxCell id="R5dkrLSoF7o3c6FtXyGB-19" value="Join us to make a difference today!" style="rounded=0;whiteSpace=wrap;html=1;" vertex="1" parent="R5dkrLSoF7o3c6FtXyGB-14">
          <mxGeometry x="297.5" y="550" width="245" height="120" as="geometry" />
        </mxCell>
        <mxCell id="R5dkrLSoF7o3c6FtXyGB-20" value="Weather info" style="rounded=0;whiteSpace=wrap;html=1;" vertex="1" parent="R5dkrLSoF7o3c6FtXyGB-14">
          <mxGeometry x="215" y="760" width="410" height="90" as="geometry" />
        </mxCell>
        <mxCell id="R5dkrLSoF7o3c6FtXyGB-21" value="Text block" style="rounded=0;whiteSpace=wrap;html=1;" vertex="1" parent="R5dkrLSoF7o3c6FtXyGB-14">
          <mxGeometry x="175" y="470" width="490" height="60" as="geometry" />
        </mxCell>
      </root>
    </mxGraphModel>
  </diagram>
</mxfile>
